<?xml version="1.0" encoding="UTF-8" standalone="no"?>
<!-- Created with Inkscape (http://www.inkscape.org/) -->

<svg
   xmlns:dc="http://purl.org/dc/elements/1.1/"
   xmlns:cc="http://creativecommons.org/ns#"
   xmlns:rdf="http://www.w3.org/1999/02/22-rdf-syntax-ns#"
   xmlns:svg="http://www.w3.org/2000/svg"
   xmlns="http://www.w3.org/2000/svg"
   xmlns:sodipodi="http://sodipodi.sourceforge.net/DTD/sodipodi-0.dtd"
   xmlns:inkscape="http://www.inkscape.org/namespaces/inkscape"
   width="744.09448819"
   height="1052.3622047"
   id="svg2866"
   version="1.1"
   inkscape:version="0.47 r22583"
   sodipodi:docname="1_seminar_union2.svg">
  <sodipodi:namedview
     id="base"
     pagecolor="#ffffff"
     bordercolor="#666666"
     borderopacity="1.0"
     inkscape:pageopacity="0.0"
     inkscape:pageshadow="2"
     inkscape:zoom="2.8"
     inkscape:cx="568.01887"
     inkscape:cy="694.19724"
     inkscape:document-units="px"
     inkscape:current-layer="g4863"
     showgrid="false"
     inkscape:snap-bbox="true"
     inkscape:bbox-paths="true"
     inkscape:bbox-nodes="true"
     inkscape:snap-bbox-edge-midpoints="true"
     inkscape:snap-bbox-midpoints="true"
     inkscape:object-paths="true"
     inkscape:object-nodes="true"
     inkscape:snap-intersection-paths="true"
     inkscape:snap-smooth-nodes="true"
     inkscape:snap-midpoints="true"
     inkscape:snap-object-midpoints="true"
     inkscape:snap-center="true"
     inkscape:snap-global="false"
     inkscape:window-width="1600"
     inkscape:window-height="1125"
     inkscape:window-x="0"
     inkscape:window-y="24"
     inkscape:window-maximized="1" />
  <defs
     id="defs2868">
    <marker
       inkscape:stockid="Arrow1Lend"
       orient="auto"
       refY="0.0"
       refX="0.0"
       id="Arrow1Lend"
       style="overflow:visible;">
      <path
         id="path3666"
         d="M 0.0,0.0 L 5.0,-5.0 L -12.5,0.0 L 5.0,5.0 L 0.0,0.0 z "
         style="fill-rule:evenodd;stroke:#000000;stroke-width:1.0pt;marker-start:none;"
         transform="scale(0.8) rotate(180) translate(12.5,0)" />
    </marker>
    <inkscape:perspective
       sodipodi:type="inkscape:persp3d"
       inkscape:vp_x="0 : 526.18109 : 1"
       inkscape:vp_y="0 : 1000 : 0"
       inkscape:vp_z="744.09448 : 526.18109 : 1"
       inkscape:persp3d-origin="372.04724 : 350.78739 : 1"
       id="perspective2874" />
    <inkscape:perspective
       id="perspective3564"
       inkscape:persp3d-origin="0.5 : 0.33333333 : 1"
       inkscape:vp_z="1 : 0.5 : 1"
       inkscape:vp_y="0 : 1000 : 0"
       inkscape:vp_x="0 : 0.5 : 1"
       sodipodi:type="inkscape:persp3d" />
    <marker
       inkscape:stockid="Arrow1Lend"
       orient="auto"
       refY="0"
       refX="0"
       id="Arrow1Lend-8"
       style="overflow:visible">
      <path
         id="path3666-3"
         d="M 0,0 5,-5 -12.5,0 5,5 0,0 z"
         style="fill-rule:evenodd;stroke:#000000;stroke-width:1pt;marker-start:none"
         transform="matrix(-0.8,0,0,-0.8,-10,0)" />
    </marker>
    <marker
       inkscape:stockid="Arrow1Lend"
       orient="auto"
       refY="0"
       refX="0"
       id="marker3570"
       style="overflow:visible">
      <path
         id="path3572"
         d="M 0,0 5,-5 -12.5,0 5,5 0,0 z"
         style="fill-rule:evenodd;stroke:#000000;stroke-width:1pt;marker-start:none"
         transform="matrix(-0.8,0,0,-0.8,-10,0)" />
    </marker>
    <marker
       inkscape:stockid="Arrow1Lend"
       orient="auto"
       refY="0"
       refX="0"
       id="marker3574"
       style="overflow:visible">
      <path
         id="path3576"
         d="M 0,0 5,-5 -12.5,0 5,5 0,0 z"
         style="fill-rule:evenodd;stroke:#000000;stroke-width:1pt;marker-start:none"
         transform="matrix(-0.8,0,0,-0.8,-10,0)" />
    </marker>
    <marker
       inkscape:stockid="Arrow1Lend"
       orient="auto"
       refY="0"
       refX="0"
       id="marker3578"
       style="overflow:visible">
      <path
         id="path3580"
         d="M 0,0 5,-5 -12.5,0 5,5 0,0 z"
         style="fill-rule:evenodd;stroke:#000000;stroke-width:1pt;marker-start:none"
         transform="matrix(-0.8,0,0,-0.8,-10,0)" />
    </marker>
    <marker
       inkscape:stockid="Arrow1Lend"
       orient="auto"
       refY="0"
       refX="0"
       id="marker3582"
       style="overflow:visible">
      <path
         id="path3584"
         d="M 0,0 5,-5 -12.5,0 5,5 0,0 z"
         style="fill-rule:evenodd;stroke:#000000;stroke-width:1pt;marker-start:none"
         transform="matrix(-0.8,0,0,-0.8,-10,0)" />
    </marker>
    <inkscape:perspective
       id="perspective6916"
       inkscape:persp3d-origin="0.5 : 0.33333333 : 1"
       inkscape:vp_z="1 : 0.5 : 1"
       inkscape:vp_y="0 : 1000 : 0"
       inkscape:vp_x="0 : 0.5 : 1"
       sodipodi:type="inkscape:persp3d" />
    <marker
       inkscape:stockid="Arrow1Lend"
       orient="auto"
       refY="0"
       refX="0"
       id="Arrow1Lend-9"
       style="overflow:visible">
      <path
         id="path3666-0"
         d="M 0,0 5,-5 -12.5,0 5,5 0,0 z"
         style="fill-rule:evenodd;stroke:#000000;stroke-width:1pt;marker-start:none"
         transform="matrix(-0.8,0,0,-0.8,-10,0)" />
    </marker>
    <marker
       inkscape:stockid="Arrow1Lend"
       orient="auto"
       refY="0"
       refX="0"
       id="marker6922"
       style="overflow:visible">
      <path
         id="path6924"
         d="M 0,0 5,-5 -12.5,0 5,5 0,0 z"
         style="fill-rule:evenodd;stroke:#000000;stroke-width:1pt;marker-start:none"
         transform="matrix(-0.8,0,0,-0.8,-10,0)" />
    </marker>
    <inkscape:perspective
       id="perspective6957"
       inkscape:persp3d-origin="0.5 : 0.33333333 : 1"
       inkscape:vp_z="1 : 0.5 : 1"
       inkscape:vp_y="0 : 1000 : 0"
       inkscape:vp_x="0 : 0.5 : 1"
       sodipodi:type="inkscape:persp3d" />
    <inkscape:perspective
       id="perspective6982"
       inkscape:persp3d-origin="0.5 : 0.33333333 : 1"
       inkscape:vp_z="1 : 0.5 : 1"
       inkscape:vp_y="0 : 1000 : 0"
       inkscape:vp_x="0 : 0.5 : 1"
       sodipodi:type="inkscape:persp3d" />
    <inkscape:perspective
       id="perspective7019"
       inkscape:persp3d-origin="0.5 : 0.33333333 : 1"
       inkscape:vp_z="1 : 0.5 : 1"
       inkscape:vp_y="0 : 1000 : 0"
       inkscape:vp_x="0 : 0.5 : 1"
       sodipodi:type="inkscape:persp3d" />
    <marker
       inkscape:stockid="Arrow1Lend"
       orient="auto"
       refY="0"
       refX="0"
       id="Arrow1Lend-4"
       style="overflow:visible">
      <path
         id="path3666-05"
         d="M 0,0 5,-5 -12.5,0 5,5 0,0 z"
         style="fill-rule:evenodd;stroke:#000000;stroke-width:1pt;marker-start:none"
         transform="matrix(-0.8,0,0,-0.8,-10,0)" />
    </marker>
    <marker
       inkscape:stockid="Arrow1Lend"
       orient="auto"
       refY="0"
       refX="0"
       id="marker7025"
       style="overflow:visible">
      <path
         id="path7027"
         d="M 0,0 5,-5 -12.5,0 5,5 0,0 z"
         style="fill-rule:evenodd;stroke:#000000;stroke-width:1pt;marker-start:none"
         transform="matrix(-0.8,0,0,-0.8,-10,0)" />
    </marker>
    <inkscape:perspective
       id="perspective7066"
       inkscape:persp3d-origin="0.5 : 0.33333333 : 1"
       inkscape:vp_z="1 : 0.5 : 1"
       inkscape:vp_y="0 : 1000 : 0"
       inkscape:vp_x="0 : 0.5 : 1"
       sodipodi:type="inkscape:persp3d" />
    <marker
       inkscape:stockid="Arrow1Lend"
       orient="auto"
       refY="0"
       refX="0"
       id="Arrow1Lend-85"
       style="overflow:visible">
      <path
         id="path3666-7"
         d="M 0,0 5,-5 -12.5,0 5,5 0,0 z"
         style="fill-rule:evenodd;stroke:#000000;stroke-width:1pt;marker-start:none"
         transform="matrix(-0.8,0,0,-0.8,-10,0)" />
    </marker>
    <marker
       inkscape:stockid="Arrow1Lend9"
       orient="auto"
       refY="0.0"
       refX="0.0"
       id="Arrow1Lend9"
       style="overflow:visible;">
      <path
         id="path3224"
         d="M 0.0,0.0 L 5.0,-5.0 L -12.5,0.0 L 5.0,5.0 L 0.0,0.0 z "
         style="marker-start:none;stroke:#aa0000;stroke-width:1.0pt;fill:#aa0000;fill-rule:evenodd"
         transform="scale(0.8) rotate(180) translate(12.5,0)" />
    </marker>
    <marker
       inkscape:stockid="Arrow1LendB"
       orient="auto"
       refY="0.0"
       refX="0.0"
       id="Arrow1LendB"
       style="overflow:visible;">
      <path
         id="path3390"
         d="M 0.0,0.0 L 5.0,-5.0 L -12.5,0.0 L 5.0,5.0 L 0.0,0.0 z "
         style="marker-start:none;stroke:#800000;stroke-width:1.0pt;fill:#800000;fill-rule:evenodd"
         transform="scale(0.8) rotate(180) translate(12.5,0)" />
    </marker>
    <marker
       inkscape:stockid="Arrow1LendM"
       orient="auto"
       refY="0.0"
       refX="0.0"
       id="Arrow1LendM"
       style="overflow:visible;">
      <path
         id="path3559"
         d="M 0.0,0.0 L 5.0,-5.0 L -12.5,0.0 L 5.0,5.0 L 0.0,0.0 z "
         style="marker-start:none;stroke:#800000;stroke-width:1.0pt;fill:#800000;fill-rule:evenodd"
         transform="scale(0.8) rotate(180) translate(12.5,0)" />
    </marker>
    <marker
       inkscape:stockid="Arrow1Lend8"
       orient="auto"
       refY="0.0"
       refX="0.0"
       id="Arrow1Lend8"
       style="overflow:visible;">
      <path
         id="path3732"
         d="M 0.0,0.0 L 5.0,-5.0 L -12.5,0.0 L 5.0,5.0 L 0.0,0.0 z "
         style="marker-start:none;stroke:#800000;stroke-width:1.0pt;fill:#800000;fill-rule:evenodd"
         transform="scale(0.8) rotate(180) translate(12.5,0)" />
    </marker>
  </defs>
  <metadata
     id="metadata2871">
    <rdf:RDF>
      <cc:Work
         rdf:about="">
        <dc:format>image/svg+xml</dc:format>
        <dc:type
           rdf:resource="http://purl.org/dc/dcmitype/StillImage" />
        <dc:title />
      </cc:Work>
    </rdf:RDF>
  </metadata>
  <g
     inkscape:label="Layer 1"
     inkscape:groupmode="layer"
     id="layer1">
    <g
       id="g4499"
       transform="translate(144.28571,0.35714286)">
      <g
         id="g4863"
         transform="matrix(1.3035097,0,0,1.2577045,-156.7751,-224.41158)">
        <path
           transform="matrix(0,1.0364197,-0.9648601,0,768.95201,338.55049)"
           sodipodi:type="arc"
           style="color:#000000;fill:#ffffff;fill-opacity:1;stroke:#aa0000;stroke-width:1.39999998000000003;stroke-linecap:butt;stroke-linejoin:round;stroke-miterlimit:4;stroke-opacity:1;stroke-dasharray:none;stroke-dashoffset:0;marker:none;visibility:visible;display:inline;overflow:visible;enable-background:accumulate"
           id="path2878"
           sodipodi:cx="212.85715"
           sodipodi:cy="462.36218"
           sodipodi:rx="34.285713"
           sodipodi:ry="34.285713"
           d="m 247.14286,462.36218 c 0,18.93548 -15.35024,34.28572 -34.28571,34.28572 -18.93548,0 -34.28572,-15.35024 -34.28572,-34.28572 0,-18.93547 15.35024,-34.28571 34.28572,-34.28571 18.93547,0 34.28571,15.35024 34.28571,34.28571 z" />
        <path
           transform="matrix(0,0.92954436,-0.86536398,0,722.94877,361.51975)"
           sodipodi:type="arc"
           style="color:#000000;fill:#ffffff;fill-opacity:1;stroke:#aa0000;stroke-width:1.56096648999999998;stroke-linecap:butt;stroke-linejoin:round;stroke-miterlimit:4;stroke-opacity:1;stroke-dasharray:none;stroke-dashoffset:0;marker:none;visibility:visible;display:inline;overflow:visible;enable-background:accumulate"
           id="path2880"
           sodipodi:cx="212.85715"
           sodipodi:cy="462.36218"
           sodipodi:rx="34.285713"
           sodipodi:ry="34.285713"
           d="m 247.14286,462.36218 c 0,18.93548 -15.35024,34.28572 -34.28571,34.28572 -18.93548,0 -34.28572,-15.35024 -34.28572,-34.28572 0,-18.93547 15.35024,-34.28571 34.28572,-34.28571 18.93547,0 34.28571,15.35024 34.28571,34.28571 z" />
        <path
           inkscape:connection-start="#path2880"
           inkscape:connection-end="#path2880"
           inkscape:connector-type="polyline"
           id="path2884"
           d="m 322.83719,559.37991 0,0"
           style="fill:none;stroke:#000000;stroke-width:1px;stroke-linecap:butt;stroke-linejoin:miter;stroke-opacity:1;display:inline" />
        <text
           id="text4486"
           y="460.93143"
           x="417.20944"
           style="font-size:16px;font-style:normal;font-weight:normal;fill:#d40000;fill-opacity:1;stroke:none;font-family:Bitstream Vera Sans"
           xml:space="preserve"><tspan
             y="460.93143"
             x="417.20944"
             id="tspan4488"
             sodipodi:role="line">0</tspan></text>
        <path
           sodipodi:nodetypes="cc"
           id="path4507"
           d="m 245.01889,408.02994 c 0,0 42.41071,0 42.41071,0"
           style="fill:none;stroke:#000000;stroke-width:1px;stroke-linecap:butt;stroke-linejoin:miter;stroke-opacity:1;marker-end:url(#Arrow1Lend)" />
        <path
           d="m 247.14286,462.36218 c 0,18.93548 -15.35024,34.28572 -34.28571,34.28572 -18.93548,0 -34.28572,-15.35024 -34.28572,-34.28572 0,-18.93547 15.35024,-34.28571 34.28572,-34.28571 18.93547,0 34.28571,15.35024 34.28571,34.28571 z"
           sodipodi:ry="34.285713"
           sodipodi:rx="34.285713"
           sodipodi:cy="462.36218"
           sodipodi:cx="212.85715"
           id="path2876"
           style="color:#000000;fill:#ffffff;fill-opacity:1;stroke:#000000;stroke-width:1.39999998000000003;stroke-linecap:butt;stroke-linejoin:round;stroke-miterlimit:4;stroke-opacity:1;stroke-dasharray:none;stroke-dashoffset:0;marker:none;visibility:visible;display:inline;overflow:visible;enable-background:accumulate"
           sodipodi:type="arc"
           transform="matrix(0,1.0364197,-0.9648601,0,768.95201,188.26964)" />
        <path
           d="m 247.14286,462.36218 a 34.285713,34.285713 0 1 1 -68.57143,0 34.285713,34.285713 0 1 1 68.57143,0 z"
           sodipodi:ry="34.285713"
           sodipodi:rx="34.285713"
           sodipodi:cy="462.36218"
           sodipodi:cx="212.85715"
           id="path4253"
           style="color:#000000;fill:#ffffff;fill-opacity:1;stroke:#000000;stroke-width:1.56096648999999998;stroke-linecap:butt;stroke-linejoin:round;stroke-miterlimit:4;stroke-opacity:1;stroke-dasharray:none;stroke-dashoffset:0;marker:none;visibility:visible;display:inline;overflow:visible;enable-background:accumulate"
           sodipodi:type="arc"
           transform="matrix(0,0.92954436,-0.86536398,0,722.94877,211.01882)" />
        <text
           xml:space="preserve"
           style="font-size:16px;font-style:normal;font-weight:normal;fill:#000000;fill-opacity:1;stroke:none;font-family:Bitstream Vera Sans"
           x="312.07547"
           y="414.711"
           id="text6679"><tspan
             sodipodi:role="line"
             id="tspan6681"
             x="312.07547"
             y="414.711">AX</tspan></text>
        <text
           id="text6683"
           y="565.21191"
           x="311.33719"
           style="font-size:16px;font-style:normal;font-weight:normal;fill:#aa0000;fill-opacity:1;stroke:#aa0000;font-family:Bitstream Vera Sans"
           xml:space="preserve"><tspan
             y="565.21191"
             x="311.33719"
             id="tspan6685"
             sodipodi:role="line">BX</tspan></text>
        <path
           transform="matrix(0,1.0364197,-0.9648601,0,911.97248,188.26964)"
           sodipodi:type="arc"
           style="color:#000000;fill:#ffffff;fill-opacity:1;stroke:#aa0000;stroke-width:1.39999998000000003;stroke-linecap:butt;stroke-linejoin:round;stroke-miterlimit:4;stroke-opacity:1;stroke-dasharray:none;stroke-dashoffset:0;marker:none;visibility:visible;display:inline;overflow:visible;enable-background:accumulate"
           id="path6773"
           sodipodi:cx="212.85715"
           sodipodi:cy="462.36218"
           sodipodi:rx="34.285713"
           sodipodi:ry="34.285713"
           d="m 247.14286,462.36218 c 0,18.93548 -15.35024,34.28572 -34.28571,34.28572 -18.93548,0 -34.28572,-15.35024 -34.28572,-34.28572 0,-18.93547 15.35024,-34.28571 34.28572,-34.28571 18.93547,0 34.28571,15.35024 34.28571,34.28571 z" />
        <path
           d="m 247.14286,462.36218 c 0,18.93548 -15.35024,34.28572 -34.28571,34.28572 -18.93548,0 -34.28572,-15.35024 -34.28572,-34.28572 0,-18.93547 15.35024,-34.28571 34.28572,-34.28571 18.93547,0 34.28571,15.35024 34.28571,34.28571 z"
           sodipodi:ry="34.285713"
           sodipodi:rx="34.285713"
           sodipodi:cy="462.36218"
           sodipodi:cx="212.85715"
           id="path6775"
           style="color:#000000;fill:#ffffff;fill-opacity:1;stroke:#000000;stroke-width:1.39999998;stroke-linecap:butt;stroke-linejoin:round;stroke-miterlimit:4;stroke-opacity:1;stroke-dasharray:none;stroke-dashoffset:0;marker:none;visibility:visible;display:inline;overflow:visible;enable-background:accumulate"
           sodipodi:type="arc"
           transform="matrix(0,1.0364197,-0.9648601,0,911.97248,338.55049)" />
        <path
           inkscape:transform-center-y="-25.299904"
           sodipodi:nodetypes="cc"
           id="path2886-6"
           d="m 337.87714,441.03637 c 5.86343,61.54311 74.39777,97.91202 96.5018,102.05307"
           style="fill:none;stroke:#000000;stroke-width:1px;stroke-linecap:butt;stroke-linejoin:miter;stroke-opacity:1;marker-end:url(#Arrow1Lend)" />
        <path
           d="m 247.14286,462.36218 c 0,18.93548 -15.35024,34.28572 -34.28571,34.28572 -18.93548,0 -34.28572,-15.35024 -34.28572,-34.28572 0,-18.93547 15.35024,-34.28571 34.28572,-34.28571 18.93547,0 34.28571,15.35024 34.28571,34.28571 z"
           sodipodi:ry="34.285713"
           sodipodi:rx="34.285713"
           sodipodi:cy="462.36218"
           sodipodi:cx="212.85715"
           id="path6947"
           style="color:#000000;fill:#ffffff;fill-opacity:1;stroke:#aa0000;stroke-width:1.56096648999999998;stroke-linecap:butt;stroke-linejoin:round;stroke-miterlimit:4;stroke-opacity:1;stroke-dasharray:none;stroke-dashoffset:0;marker:none;visibility:visible;display:inline;overflow:visible;enable-background:accumulate"
           sodipodi:type="arc"
           transform="matrix(0,0.92954436,-0.86536398,0,865.96924,211.01882)" />
        <text
           xml:space="preserve"
           style="font-size:16px;font-style:normal;font-weight:normal;fill:#d40000;fill-opacity:1;stroke:none;font-family:Bitstream Vera Sans"
           x="456.04907"
           y="414.711"
           id="text6679-8"><tspan
             sodipodi:role="line"
             id="tspan6681-4"
             x="456.04907"
             y="414.711">AY</tspan></text>
        <text
           id="text6683-7"
           y="565.21191"
           x="455.12329"
           style="font-size:16px;font-style:normal;font-weight:normal;fill:#000000;fill-opacity:1;stroke:none;font-family:Bitstream Vera Sans"
           xml:space="preserve"><tspan
             y="565.21191"
             x="455.12329"
             id="tspan6685-6"
             sodipodi:role="line">BY</tspan></text>
        <text
           xml:space="preserve"
           style="font-size:16px;font-style:normal;font-weight:normal;fill:#d40000;fill-opacity:1;stroke:none;font-family:Bitstream Vera Sans"
           x="359.94211"
           y="517.72424"
           id="text7003"><tspan
             sodipodi:role="line"
             id="tspan7005"
             x="359.94211"
             y="517.72424">0</tspan></text>
        <g
           id="g4494"
           transform="translate(110.70062,-54.052821)">
          <path
             style="fill:none;stroke:#000000;stroke-width:1px;stroke-linecap:butt;stroke-linejoin:miter;stroke-opacity:1;marker-end:url(#Arrow1Lend)"
             d="m 197.24761,431.17964 c 0,0 -17.44046,-24.30493 -17.94553,-34.91154 -0.50508,-10.6066 68.18529,-14.14213 67.68022,4.04061 -0.50508,18.18275 -12.62691,33.84011 -12.62691,33.84011"
             id="path4110"
             sodipodi:nodetypes="cssc" />
          <text
             xml:space="preserve"
             style="font-size:16px;font-style:normal;font-weight:normal;fill:#000000;fill-opacity:1;stroke:none;font-family:Bitstream Vera Sans"
             x="207.14285"
             y="383.07648"
             id="text4482"><tspan
               sodipodi:role="line"
               id="tspan4484"
               x="207.14285"
               y="383.07648">1</tspan></text>
        </g>
        <g
           transform="translate(253.17312,-54.336785)"
           id="g7095"
           style="stroke:#800000">
          <path
             sodipodi:nodetypes="cssc"
             id="path7097"
             d="m 197.24761,431.17964 c 0,0 -17.44046,-24.30493 -17.94553,-34.91154 -0.50508,-10.6066 68.18529,-14.14213 67.68022,4.04061 -0.50508,18.18275 -12.62691,33.84011 -12.62691,33.84011"
             style="stroke-linejoin:miter;marker-end:url(#Arrow1LendM);stroke-opacity:1;stroke:#800000;stroke-linecap:butt;stroke-width:1px;fill:none" />
          <text
             id="text7099"
             y="383.07648"
             x="207.14285"
             style="font-size:16px;font-style:normal;font-weight:normal;fill:#800000;fill-opacity:1;stroke:#800000;font-family:Bitstream Vera Sans"
             xml:space="preserve"><tspan
               y="383.07648"
               x="207.14285"
               id="tspan7101"
               sodipodi:role="line">1</tspan></text>
        </g>
        <path
           style="fill:none;stroke:#000000;stroke-width:1px;stroke-linecap:butt;stroke-linejoin:miter;stroke-opacity:1;marker-end:url(#Arrow1Lend)"
           d="M 450.2701,527.40524 C 444.40667,465.86213 375.87233,429.49322 353.7683,425.35217"
           id="path3162"
           sodipodi:nodetypes="cc"
           inkscape:transform-center-y="25.299906" />
        <path
           style="stroke-linejoin:miter;marker-end:url(#Arrow1Lend9);stroke-opacity:1;stroke:#aa0000;stroke-linecap:butt;stroke-width:1px;fill:none"
           d="m 450.2701,441.03637 c -5.86343,61.54311 -74.39777,97.91202 -96.5018,102.05307"
           id="path3164"
           sodipodi:nodetypes="cc"
           inkscape:transform-center-y="-25.299904" />
        <path
           inkscape:transform-center-y="25.299906"
           sodipodi:nodetypes="cc"
           id="path3166"
           d="m 337.87714,527.40524 c 5.86343,-61.54311 74.39777,-97.91202 96.5018,-102.05307"
           style="stroke-linejoin:miter;marker-end:url(#Arrow1LendB);stroke-opacity:1;stroke:#800000;stroke-linecap:butt;stroke-width:1px;fill:none" />
        <text
           id="text3168"
           y="465.47485"
           x="328.70776"
           style="font-size:16px;font-style:normal;font-weight:normal;fill:#000000;fill-opacity:1;stroke:none;font-family:Bitstream Vera Sans"
           xml:space="preserve"><tspan
             y="465.47485"
             x="328.70776"
             id="tspan3170"
             sodipodi:role="line">0</tspan></text>
        <text
           xml:space="preserve"
           style="font-size:16px;font-style:normal;font-weight:normal;fill:#000000;fill-opacity:1;stroke:none;font-family:Bitstream Vera Sans"
           x="434.74017"
           y="515.16858"
           id="text3172"><tspan
             sodipodi:role="line"
             id="tspan3174"
             x="434.74017"
             y="515.16858">0</tspan></text>
        <g
           style="stroke:#800000"
           transform="translate(107.13881,94.460374)"
           id="g3176">
          <path
             sodipodi:nodetypes="cssc"
             id="path3178"
             d="m 200.26145,496.37934 c 0,0 -17.44046,24.30493 -17.94553,34.91154 -0.50508,10.6066 68.18529,14.14213 67.68022,-4.04061 -0.50508,-18.18275 -12.62691,-33.84011 -12.62691,-33.84011"
             style="stroke-linejoin:miter;marker-end:url(#Arrow1Lend8);stroke-opacity:1;stroke:#800000;stroke-linecap:butt;stroke-width:1px;fill:none" />
          <text
             id="text3180"
             y="557.71436"
             x="212.89655"
             style="font-size:16px;font-style:normal;font-weight:normal;fill:#800000;fill-opacity:1;stroke:#800000;font-family:Bitstream Vera Sans"
             xml:space="preserve"><tspan
               y="557.71436"
               x="212.89655"
               id="tspan3182"
               sodipodi:role="line">1</tspan></text>
        </g>
        <g
           id="g3184"
           transform="translate(250.70725,94.460374)">
          <path
             style="fill:none;stroke:#000000;stroke-width:1px;stroke-linecap:butt;stroke-linejoin:miter;stroke-opacity:1;marker-end:url(#Arrow1Lend)"
             d="m 200.26145,496.37934 c 0,0 -17.44046,24.30493 -17.94553,34.91154 -0.50508,10.6066 68.18529,14.14213 67.68022,-4.04061 -0.50508,-18.18275 -12.62691,-33.84011 -12.62691,-33.84011"
             id="path3186"
             sodipodi:nodetypes="cssc" />
          <text
             xml:space="preserve"
             style="font-size:16px;font-style:normal;font-weight:normal;fill:#000000;fill-opacity:1;stroke:none;font-family:Bitstream Vera Sans"
             x="212.89655"
             y="557.71436"
             id="text3188"><tspan
               sodipodi:role="line"
               id="tspan3190"
               x="212.89655"
               y="557.71436">1</tspan></text>
        </g>
      </g>
    </g>
  </g>
</svg>
