<?xml version="1.0" encoding="UTF-8" standalone="no"?>
<!DOCTYPE svg PUBLIC "-//W3C//DTD SVG 1.0//EN"
 "http://www.w3.org/TR/2001/REC-SVG-20010904/DTD/svg10.dtd" [
 <!ATTLIST svg xmlns:xlink CDATA #FIXED "http://www.w3.org/1999/xlink">
]>
<!-- Generated by Graphviz version 2.20.2 (Thu Oct &#160;9 00:12:58 UTC 2008)
     For user: (sigurdmeldgaard) stm -->
<!-- Title: G Pages: 1 -->
<svg width="346pt" height="154pt"
 viewBox="0.00 0.00 346.00 154.00" xmlns="http://www.w3.org/2000/svg" xmlns:xlink="http://www.w3.org/1999/xlink">
<g id="graph0" class="graph" transform="scale(1 1) rotate(0) translate(4 150)">
<title>G</title>
<polygon style="fill:white;stroke:white;" points="-4,4 -4,-150 342,-150 342,4 -4,4"/>
<!-- D -->
<g id="node1" class="node"><title>D</title>
<ellipse style="fill:none;stroke:black;" cx="316" cy="-76" rx="18" ry="18"/>
<ellipse style="fill:none;stroke:black;" cx="316" cy="-76" rx="22" ry="22"/>
<text text-anchor="middle" x="316" y="-69.4" style="font-family:Times New Roman;font-size:14.00;">D</text>
</g>
<!-- in -->
<g id="node2" class="node"><title>in</title>
</g>
<!-- A -->
<g id="node4" class="node"><title>A</title>
<ellipse style="fill:none;stroke:black;" cx="128" cy="-76" rx="18" ry="18"/>
<text text-anchor="middle" x="128" y="-69.4" style="font-family:Times New Roman;font-size:14.00;">A</text>
</g>
<!-- in&#45;&gt;A -->
<g id="edge2" class="edge"><title>in&#45;&gt;A</title>
<path style="fill:none;stroke:black;" d="M54,-76C68,-76 85,-76 100,-76"/>
<polygon style="fill:black;stroke:black;" points="100,-79.5001 110,-76 100,-72.5001 100,-79.5001"/>
</g>
<!-- A&#45;&gt;A -->
<g id="edge4" class="edge"><title>A&#45;&gt;A</title>
<path style="fill:none;stroke:black;" d="M120,-92C118,-102 121,-112 128,-112 132,-112 135,-108 136,-102"/>
<polygon style="fill:black;stroke:black;" points="139.5,-102 136,-92 132.5,-102 139.5,-102"/>
<text text-anchor="middle" x="128" y="-128" style="font-family:Times New Roman;font-size:20.00;fill:red;">0</text>
<text text-anchor="middle" x="128" y="-111" style="font-family:Times New Roman;font-size:20.00;fill:red;"> </text>
</g>
<!-- B -->
<g id="node7" class="node"><title>B</title>
<ellipse style="fill:none;stroke:black;" cx="220" cy="-76" rx="18" ry="18"/>
<text text-anchor="middle" x="220" y="-69.4" style="font-family:Times New Roman;font-size:14.00;">B</text>
</g>
<!-- A&#45;&gt;B -->
<g id="edge6" class="edge"><title>A&#45;&gt;B</title>
<path style="fill:none;stroke:black;" d="M146,-76C159,-76 177,-76 192,-76"/>
<polygon style="fill:black;stroke:black;" points="192,-79.5001 202,-76 192,-72.5001 192,-79.5001"/>
<text text-anchor="middle" x="174" y="-92" style="font-family:Times New Roman;font-size:20.00;fill:red;">Λ</text>
<text text-anchor="middle" x="174" y="-75" style="font-family:Times New Roman;font-size:20.00;fill:red;"> </text>
</g>
<!-- B&#45;&gt;D -->
<g id="edge13" class="edge"><title>B&#45;&gt;D</title>
<path style="fill:none;stroke:black;" d="M238,-76C251,-76 269,-76 284,-76"/>
<polygon style="fill:black;stroke:black;" points="284,-79.5001 294,-76 284,-72.5001 284,-79.5001"/>
<text text-anchor="middle" x="266" y="-92" style="font-family:Times New Roman;font-size:20.00;fill:red;">Λ</text>
<text text-anchor="middle" x="266" y="-75" style="font-family:Times New Roman;font-size:20.00;fill:red;"> </text>
</g>
<!-- C -->
<g id="node9" class="node"><title>C</title>
<ellipse style="fill:none;stroke:black;" cx="316" cy="-18" rx="18" ry="18"/>
<text text-anchor="middle" x="316" y="-11.4" style="font-family:Times New Roman;font-size:14.00;">C</text>
</g>
<!-- B&#45;&gt;C -->
<g id="edge9" class="edge"><title>B&#45;&gt;C</title>
<path style="fill:none;stroke:black;" d="M233,-63C247,-53 271,-37 290,-28"/>
<polygon style="fill:black;stroke:black;" points="291.958,-30.916 299,-23 288.559,-24.7969 291.958,-30.916"/>
<text text-anchor="middle" x="293" y="-30" style="font-family:Times New Roman;font-size:20.00;fill:red;">0</text>
<text text-anchor="middle" x="293" y="-13" style="font-family:Times New Roman;font-size:20.00;fill:red;"> </text>
</g>
<!-- C&#45;&gt;B -->
<g id="edge11" class="edge"><title>C&#45;&gt;B</title>
<path style="fill:none;stroke:black;" d="M303,-31C289,-41 265,-56 247,-66"/>
<polygon style="fill:black;stroke:black;" points="245.042,-63.084 238,-71 248.441,-69.2031 245.042,-63.084"/>
<text text-anchor="middle" x="244" y="-62" style="font-family:Times New Roman;font-size:20.00;fill:red;">1</text>
<text text-anchor="middle" x="244" y="-45" style="font-family:Times New Roman;font-size:20.00;fill:red;"> </text>
</g>
</g>
</svg>
